<svg width="144" height="62" viewBox="0 0 144 62" fill="none" xmlns="http://www.w3.org/2000/svg">
<path d="M19.2371 61.2332H16.7279C15.1746 61.2332 14.2785 60.5254 14.0395 59.1688C12.307 59.1688 11.3511 58.225 11.3511 56.5145V27.7301H7.46781C5.49631 27.7301 4.00275 26.9043 3.2261 25.4886C1.25459 24.9578 0 23.3652 0 21.0648V15.8742C0 14.1636 0.955879 13.2199 2.68841 13.2199H31.0064C32.9181 13.2199 34.4714 14.0457 35.1883 15.4613C37.2196 15.9921 38.4742 17.6437 38.4742 19.9441V25.0758C38.4742 26.7863 37.5183 27.7301 35.7858 27.7301H27.1828V53.9191C27.1828 58.8738 24.6139 61.2332 19.2371 61.2332ZM14.0395 23.0113V56.5145H16.5487C20.7307 56.5145 21.806 55.0399 21.806 51.8547V23.0113H33.0974V17.8796C33.0974 16.523 32.3804 15.8742 31.0064 15.8742H2.68841V21.0648C2.68841 22.4215 3.40532 23.0113 4.7794 23.0113H14.0395Z" fill="#8DCBE6"/>
<path d="M54.2723 62C49.6722 62 45.8486 60.5254 43.1005 57.7531C38.1419 54.8629 35.2742 49.0824 35.2742 41.4144C35.2742 30.0304 41.5472 22.9523 51.5839 22.9523C56.1244 22.9523 59.9479 24.4859 62.7558 27.1992C67.7144 30.1484 70.582 35.8699 70.582 43.4789C70.582 54.7449 64.1896 62 54.2723 62ZM51.5839 57.2813C59.231 57.2813 65.2052 52.0906 65.2052 41.4144C65.2052 30.7383 59.231 25.6066 51.5839 25.6066C43.6979 25.6066 37.9626 30.7383 37.9626 41.4144C37.9626 52.0906 43.6979 57.2813 51.5839 57.2813ZM51.5839 50.557C47.8799 50.557 45.7292 47.4309 45.7292 41.4144C45.7292 35.398 47.8799 32.3308 51.5839 32.3308C55.2282 32.3308 57.4387 35.398 57.4387 41.4144C57.4387 47.4309 55.2282 50.557 51.5839 50.557ZM51.7034 47.9027C53.6152 47.7848 54.7503 45.7793 54.7503 41.4144C54.7503 39.5269 54.5113 38.1113 54.1529 37.0496C52.2411 37.1086 51.106 39.0551 51.106 43.4789C51.106 45.3664 51.2852 46.841 51.7034 47.9027Z" fill="#8DCBE6"/>
<path d="M89.7865 61.7051C85.6045 61.7051 82.1394 60.2895 79.5705 57.7531C74.7314 54.9219 71.9235 49.0824 71.9235 41.0016C71.9235 29.7945 77.7185 22.6574 86.9188 22.6574C88.2332 22.6574 89.5475 22.8343 90.6826 23.1882V13.7507C90.6826 12.0402 91.6385 11.0964 93.371 11.0964H99.166C101.078 11.0964 102.571 11.9222 103.288 13.3378C105.26 13.8687 106.514 15.4023 106.514 17.6437V53.9781C106.514 58.9918 103.945 61.1742 98.2102 61.1742H96.9556C95.223 61.1742 94.2672 61.1153 94.2672 60.9383C92.8931 61.4102 91.3398 61.7051 89.7865 61.7051ZM87.0981 56.9863C90.0852 56.9863 92.5944 55.8067 94.2672 53.9781V56.4555H95.5218C100.182 56.4555 101.138 55.0988 101.138 51.9137V15.5793C101.138 14.3406 100.48 13.7507 99.166 13.7507H93.371V27.966C91.8775 26.0785 89.428 25.3117 86.9188 25.3117C80.4069 25.3117 74.6119 29.8535 74.6119 41.0016C74.6119 52.2086 80.1082 56.9863 87.0981 56.9863ZM88.4721 49.9082C84.5291 49.9082 82.4381 47.1359 82.4381 41.2375C82.4381 35.339 84.5291 32.1539 88.4721 32.1539C90.9216 32.1539 92.8931 33.6285 93.61 35.9289V46.1332C92.8931 48.5516 90.9216 49.9082 88.4721 49.9082ZM88.2929 47.2539H88.4721C89.667 47.2539 90.5034 46.723 90.9216 45.7203V36.8726C88.9501 36.9906 87.815 38.8781 87.815 43.3019C87.815 45.0125 87.9942 46.3102 88.2929 47.2539Z" fill="#8DCBE6"/>
<path d="M127.69 62C123.09 62 119.267 60.5254 116.518 57.7531C111.56 54.8629 108.692 49.0824 108.692 41.4144C108.692 30.0304 114.965 22.9523 125.002 22.9523C129.542 22.9523 133.366 24.4859 136.174 27.1992C141.132 30.1484 144 35.8699 144 43.4789C144 54.7449 137.608 62 127.69 62ZM125.002 57.2813C132.649 57.2813 138.623 52.0906 138.623 41.4144C138.623 30.7383 132.649 25.6066 125.002 25.6066C117.116 25.6066 111.381 30.7383 111.381 41.4144C111.381 52.0906 117.116 57.2813 125.002 57.2813ZM125.002 50.557C121.298 50.557 119.147 47.4309 119.147 41.4144C119.147 35.398 121.298 32.3308 125.002 32.3308C128.646 32.3308 130.857 35.398 130.857 41.4144C130.857 47.4309 128.646 50.557 125.002 50.557ZM125.121 47.9027C127.033 47.7848 128.168 45.7793 128.168 41.4144C128.168 39.5269 127.929 38.1113 127.571 37.0496C125.659 37.1086 124.524 39.0551 124.524 43.4789C124.524 45.3664 124.703 46.841 125.121 47.9027Z" fill="#8DCBE6"/>
<path d="M89.5257 7.92203C88.922 8.06258 88.3175 7.69211 88.1755 7.09457L86.9757 2.04548C86.8337 1.44794 87.208 0.849601 87.8117 0.709053C88.4154 0.568506 89.0199 0.938974 89.1619 1.53652L90.3617 6.5856C90.5037 7.18314 90.1294 7.78148 89.5257 7.92203Z" fill="#8DCBE6"/>
<path d="M95.695 7.48757C95.0787 7.41879 94.6354 6.86855 94.7049 6.25856L95.2921 1.10436C95.3616 0.494374 95.9175 0.0556416 96.5338 0.124422C97.1501 0.193202 97.5933 0.743449 97.5238 1.35343L96.9367 6.50764C96.8672 7.11762 96.3112 7.55636 95.695 7.48757Z" fill="#9DF1DF"/>
<path d="M101.565 8.56871C101.014 8.28563 100.8 7.6146 101.086 7.06992L103.503 2.46752C103.789 1.92284 104.467 1.71077 105.017 1.99385C105.567 2.27693 105.782 2.94796 105.496 3.49264L103.079 8.09505C102.793 8.63973 102.115 8.8518 101.565 8.56871Z" fill="#FFEA20"/>
</svg>
