<svg width="228" height="261" viewBox="0 0 228 261" fill="none" xmlns="http://www.w3.org/2000/svg">
<path d="M207.989 86.7344L206.536 78.168L198.454 81.2191L198.222 80.8084L204.85 75.2344L198.222 69.7191L198.454 69.3084L206.536 72.3007L207.989 63.7344H208.454L209.908 72.3007L217.989 69.3084L218.222 69.7191L211.594 75.2344L218.222 80.8084L217.989 81.2191L209.908 78.168L208.454 86.7344H207.989Z" fill="#E3F6FF"/>
<path d="M18.7674 23L17.314 14.4337L9.23256 17.4847L9 17.074L15.6279 11.5L9 5.98469L9.23256 5.57398L17.314 8.56633L18.7674 0H19.2326L20.686 8.56633L28.7674 5.57398L29 5.98469L22.3721 11.5L29 17.074L28.7674 17.4847L20.686 14.4337L19.2326 23H18.7674Z" fill="#E3F6FF"/>
<path d="M217.767 250L216.314 241.434L208.233 244.485L208 244.074L214.628 238.5L208 232.985L208.233 232.574L216.314 235.566L217.767 227H218.233L219.686 235.566L227.767 232.574L228 232.985L221.372 238.5L228 244.074L227.767 244.485L219.686 241.434L218.233 250H217.767Z" fill="#E3F6FF"/>
<circle cx="106.5" cy="232.5" r="5.5" fill="#E3F6FF"/>
<circle cx="52.5" cy="137.5" r="5.5" fill="#E3F6FF"/>
<circle cx="5.5" cy="255.5" r="5.5" fill="#E3F6FF"/>
<circle cx="148.5" cy="131.5" r="5.5" fill="#E3F6FF"/>
</svg>
