<svg width="16" height="16" viewBox="0 0 16 16" fill="none" xmlns="http://www.w3.org/2000/svg">
<g id="System-Line/search-line" clip-path="url(#clip0_311_4721)">
<g id="Group">
<path id="Vector" d="M12.0207 11.0777L14.876 13.9323L13.9327 14.8757L11.078 12.0203C10.0159 12.8718 8.69471 13.3349 7.33337 13.333C4.02137 13.333 1.33337 10.645 1.33337 7.33301C1.33337 4.02101 4.02137 1.33301 7.33337 1.33301C10.6454 1.33301 13.3334 4.02101 13.3334 7.33301C13.3353 8.69434 12.8722 10.0155 12.0207 11.0777ZM10.6834 10.583C11.5294 9.71293 12.002 8.54663 12 7.33301C12 4.75434 9.91137 2.66634 7.33337 2.66634C4.75471 2.66634 2.66671 4.75434 2.66671 7.33301C2.66671 9.91101 4.75471 11.9997 7.33337 11.9997C8.54699 12.0016 9.7133 11.5291 10.5834 10.683L10.6834 10.583Z" fill="#B2BEC3"/>
</g>
</g>
<defs>
<clipPath id="clip0_311_4721">
<rect width="16" height="16" fill="white"/>
</clipPath>
</defs>
</svg>
